<svg id="visual" viewBox="0 0 960 300" width="960" height="300" xmlns="http://www.w3.org/2000/svg" xmlns:xlink="http://www.w3.org/1999/xlink" version="1.1"><rect x="0" y="0" width="960" height="300" fill="#202531"></rect><path d="M0 174L20 173.5C40 173 80 172 120 172.8C160 173.7 200 176.3 240 180.2C280 184 320 189 360 194.2C400 199.3 440 204.7 480 205.7C520 206.7 560 203.3 600 200.8C640 198.3 680 196.7 720 192.2C760 187.7 800 180.3 840 177C880 173.7 920 174.3 940 174.7L960 175L960 0L940 0C920 0 880 0 840 0C800 0 760 0 720 0C680 0 640 0 600 0C560 0 520 0 480 0C440 0 400 0 360 0C320 0 280 0 240 0C200 0 160 0 120 0C80 0 40 0 20 0L0 0Z" fill="#f37462"></path><path d="M0 138L20 142.5C40 147 80 156 120 156.5C160 157 200 149 240 145.5C280 142 320 143 360 142.3C400 141.7 440 139.3 480 139.5C520 139.7 560 142.3 600 147.3C640 152.3 680 159.7 720 160C760 160.3 800 153.7 840 152C880 150.3 920 153.7 940 155.3L960 157L960 0L940 0C920 0 880 0 840 0C800 0 760 0 720 0C680 0 640 0 600 0C560 0 520 0 480 0C440 0 400 0 360 0C320 0 280 0 240 0C200 0 160 0 120 0C80 0 40 0 20 0L0 0Z" fill="#e95441"></path><path d="M0 127L20 124.3C40 121.7 80 116.3 120 113.3C160 110.3 200 109.7 240 112.7C280 115.7 320 122.3 360 124.2C400 126 440 123 480 121.8C520 120.7 560 121.3 600 121.5C640 121.7 680 121.3 720 118.7C760 116 800 111 840 111C880 111 920 116 940 118.5L960 121L960 0L940 0C920 0 880 0 840 0C800 0 760 0 720 0C680 0 640 0 600 0C560 0 520 0 480 0C440 0 400 0 360 0C320 0 280 0 240 0C200 0 160 0 120 0C80 0 40 0 20 0L0 0Z" fill="#dd2e1e"></path><path d="M0 86L20 87.3C40 88.7 80 91.3 120 89.2C160 87 200 80 240 78.2C280 76.3 320 79.7 360 82C400 84.3 440 85.7 480 83.8C520 82 560 77 600 77.7C640 78.3 680 84.7 720 84.7C760 84.7 800 78.3 840 77.3C880 76.3 920 80.7 940 82.8L960 85L960 0L940 0C920 0 880 0 840 0C800 0 760 0 720 0C680 0 640 0 600 0C560 0 520 0 480 0C440 0 400 0 360 0C320 0 280 0 240 0C200 0 160 0 120 0C80 0 40 0 20 0L0 0Z" fill="#c0261e"></path><path d="M0 48L20 49C40 50 80 52 120 50.7C160 49.3 200 44.7 240 44.5C280 44.3 320 48.7 360 51C400 53.3 440 53.7 480 54.5C520 55.3 560 56.7 600 57C640 57.3 680 56.7 720 56.8C760 57 800 58 840 57.3C880 56.7 920 54.3 940 53.2L960 52L960 0L940 0C920 0 880 0 840 0C800 0 760 0 720 0C680 0 640 0 600 0C560 0 520 0 480 0C440 0 400 0 360 0C320 0 280 0 240 0C200 0 160 0 120 0C80 0 40 0 20 0L0 0Z" fill="#a3201c"></path></svg>